Simulation
nRows=36
nColumns=15
endheader
time  TH_x TH_y TH_z SC_y  SC_z  SC_x  AC_y  AC_z  AC_x  GH_y  GH_z  GH_yy  EL_x  PS_y
1.7000000000000002  0.000000  0.000000  0.000000  -31.137833724033467  10.486265462598157  14.802472128554582  63.93481474566163  14.929880486799659  1.6422736076418165  53.772505549268054  58.04905242830969  -51.10712855288608  23.063019638607226  0.000000
1.7340000000000002  0.000000  0.000000  0.000000  -31.137216804576283  10.496036364049184  14.685995584808524  63.86850132972127  15.029152509183488  1.6728001284111345  53.606938902369336  57.87728402953665  -50.71443946389359  23.06355467772298  0.000000
1.7680000000000002  0.000000  0.000000  0.000000  -31.12433873454731  10.490976589564506  14.558026770695998  63.80312123066067  15.08670927398922  1.677198550271895  53.402534988012576  57.62080925479524  -50.230464404095244  23.070017898166405  0.000000
1.802  0.000000  0.000000  0.000000  -31.09964080240567  10.469740207398731  14.417617112786473  63.73772201450046  15.102770943363572  1.6538540943040327  53.15954521682595  57.28019265755824  -49.6563710511696  23.082070173054255  0.000000
1.836  0.000000  0.000000  0.000000  -31.06201463797565  10.429304106450893  14.262658501362358  63.67192811712626  15.078491234748897  1.6005980383225307  52.87855701802244  56.856663719989825  -48.99392218400523  23.10016592858528  0.000000
1.87  0.000000  0.000000  0.000000  -31.011913724172654  10.366209626906706  14.09133273211126  63.60565945679664  15.015830319181774  1.5154122180509397  52.56001276575121  56.35161476305802  -48.24457123084639  23.124653927909524  0.000000
1.9040000000000001  0.000000  0.000000  0.000000  -30.948526707392485  10.276315340601524  13.900707199840236  63.5388302914673  14.916831805713638  1.3963320767909537  52.20415505072301  55.767096841516974  -47.410370347354835  23.155330913639574  0.000000
1.9380000000000002  0.000000  0.000000  0.000000  -30.87280110921026  10.155698084565952  13.688321305116398  63.470700738702426  14.783955443602142  1.2416152077277598  51.81075374973495  55.10507665880211  -46.492614959605056  23.192322883875384  0.000000
1.9720000000000002  0.000000  0.000000  0.000000  -30.785630521211097  9.999410896633275  13.451077228079514  63.401321506657546  14.620003021875533  1.0495580254092167  51.37885826217381  54.36816978426129  -45.493338439295535  23.235447673032038  0.000000
2.0060000000000002  0.000000  0.000000  0.000000  -30.690984192557064  9.802529713264807  13.187204121371863  63.330908716251564  14.428370690640213  0.8189621296192171  50.90653319336156  53.558570495401064  -44.4136513447253  23.284742987381488  0.000000
2.04  0.000000  0.000000  0.000000  -30.591508783052443  9.560203652445805  12.893849099596666  63.259907932266756  14.214966314890255  0.5501045848053191  50.391355112733415  52.67718567772409  -43.25583323775595  23.340054181832553  0.000000
2.0740000000000003  0.000000  0.000000  0.000000  -30.49043258010034  9.271778182743166  12.569312296311885  63.187148959284436  13.986100092177937  0.24667009215511806  49.832860614344966  51.72316242727501  -42.02422496263005  23.400798195760554  0.000000
2.108  0.000000  0.000000  0.000000  -30.387607561902843  8.940557994159262  12.216601047903904  63.11060976015043  13.744439148789942  -0.0876583765141197  49.23286865526699  50.694196529292455  -40.72235955475394  23.465849874584272  0.000000
2.1420000000000003  0.000000  0.000000  0.000000  -30.284078197459756  8.57239055353078  11.84309187147202  63.027047892917025  13.488615092640597  -0.4489775264860226  48.59423118345991  49.5874928141132  -39.352683452295224  23.534991832844437  0.000000
2.176  0.000000  0.000000  0.000000  -30.179941749655672  8.1729692224998  11.456368945497621  62.93476914463639  13.216516571756069  -0.8337925377660081  47.920581741203364  48.40168352928792  -37.91860019840116  23.6080480230779  0.000000
2.21  0.000000  0.000000  0.000000  -30.08089019411634  7.748547034056225  11.065428197967186  62.835448701850545  12.923633630054077  -1.2364152372508792  47.21773399875323  47.13838843586812  -36.42736854201007  23.684859715187223  0.000000
2.244  0.000000  0.000000  0.000000  -29.99604202203052  7.305000372567383  10.67866004473728  62.73351904897478  12.60366104367172  -1.6491610354011732  46.492780749988896  45.80238418824914  -34.88692318806372  23.766090715980173  0.000000
2.278  0.000000  0.000000  0.000000  -29.93403657009413  6.847064594869651  10.306045133475854  62.63468086745957  12.251867116538538  -2.0662829094683763  45.74818786045391  44.397835523427624  -33.30194793325408  23.85208593554456  0.000000
2.3120000000000003  0.000000  0.000000  0.000000  -29.909499678759122  6.382045512591107  9.963230305491706  62.55013236519284  11.859776856384816  -2.4787445083940787  44.98701683675726  42.927107006470784  -31.6817984042521  23.942360245807986  0.000000
2.346  0.000000  0.000000  0.000000  -29.941491870185438  5.92509551954597  9.652085226994402  62.48687732719809  11.43085003671546  -2.862899024080089  44.21860974442196  41.390229399419496  -30.039794022059173  24.03754960035024  0.000000
2.3800000000000003  0.000000  0.000000  0.000000  -30.022997541474822  5.489610132326005  9.354460761242207  62.4399744984561  10.985541986624474  -3.199317911018636  43.448724417127615  39.78792829925692  -28.38704733789531  24.138925689483685  0.000000
2.414  0.000000  0.000000  0.000000  -30.12701606912214  5.084862217757602  9.060501829836877  62.394982005889375  10.533187829773054  -3.4867799604021066  42.675669722474915  38.124693521381246  -26.725597864968286  24.245125967135582  0.000000
2.4480000000000004  0.000000  0.000000  0.000000  -30.22703565019104  4.717048673498179  8.768706974808572  62.335396718816874  10.072780040989455  -3.732786567011704  41.896907332755276  36.40685704964979  -25.054703451371104  24.35572732556624  0.000000
2.482  0.000000  0.000000  0.000000  -30.30975302098932  4.385098547823978  8.475913162911771  62.24824243625062  9.605218736935765  -3.947999719558832  41.107588666272406  34.644298785424716  -23.36989848561497  24.47024269415941  0.000000
2.516  0.000000  0.000000  0.000000  -30.368865039289975  4.0796521400437005  8.176079373083423  62.12213798339902  9.136074416726633  -4.147697907630646  40.301162710473136  32.848552427270945  -21.66592622377953  24.589075302792363  0.000000
2.5500000000000003  0.000000  0.000000  0.000000  -30.405141151482933  3.7860392723686087  7.859965133123861  61.94608211002258  8.675745269749351  -4.350158250059453  39.46571511580138  31.03335693131629  -19.93279507308952  24.71022174211558  0.000000
2.584  0.000000  0.000000  0.000000  -30.41662075954894  3.483388822200643  7.5211547458987  61.709522381209865  8.236988255407306  -4.580130870133973  38.5804122832164  29.21042637586265  -18.15340106077915  24.832318875664956  0.000000
2.6180000000000003  0.000000  0.000000  0.000000  -30.406491427023415  3.1558832266547796  7.174273259965185  61.41020902908324  7.8118772028354275  -4.861085552110844  37.62691371359711  27.388801384367977  -16.311517774936465  24.954895864066305  0.000000
2.652  0.000000  0.000000  0.000000  -30.38306377656205  2.801175914846116  6.829575326211463  61.057525944064665  7.389188432796299  -5.196674095746614  36.618227786368685  25.576461516129626  -14.421437580615564  25.073615049356516  0.000000
2.6860000000000004  0.000000  0.000000  0.000000  -30.349361835187885  2.416034553805428  6.479983375183842  60.65740773944631  6.97885207080603  -5.58139142834359  35.5735948423315  23.77586811929312  -12.503466595516699  25.191575754182878  0.000000
2.72  0.000000  0.000000  0.000000  -30.302999131570733  1.996212213968917  6.118158844206327  60.21603489129396  6.596248159058119  -6.013527465081613  34.51029241111064  21.98684967621375  -10.57784980729851  25.3099354917612  0.000000
2.754  0.000000  0.000000  0.000000  -30.24496267023858  1.5401838156476555  5.736481773666672  59.73971511227743  6.257744683124838  -6.487716827973456  33.44271379193336  20.207469300051145  -8.66153424325717  25.42857981378049  0.000000
2.7880000000000003  0.000000  0.000000  0.000000  -30.171024435344552  1.0465372612063062  5.326555645780292  59.23515421935337  5.980466219057656  -6.999564756657254  32.39074800213198  18.434240306637307  -6.778172239590978  25.547438072638954  0.000000
2.822  0.000000  0.000000  0.000000  -30.07645172619846  0.5161440361332995  4.879693985341982  58.70530935566211  5.778685206298417  -7.540955244082321  31.37570397373314  16.66226839112819  -4.951337172721311  25.665875709050713  0.000000
2.8560000000000003  0.000000  0.000000  0.000000  -29.950861630196716  -0.042278602244951266  4.385420841223843  58.15127859916931  5.662230665705966  -8.10107186607045  30.429638807017163  14.884186506695022  -3.215210445899873  25.78513003941275  0.000000
2.89  0.000000  0.000000  0.000000  -29.78425284863123  -0.6082283429598594  3.837927067749649  57.57001195873292  5.62195079761166  -8.653755550641813  29.577187597904143  13.09031180115041  -1.598387257361309  25.90556567268037  0.000000
